<?xml version="1.0" encoding="UTF-8"?>
<svg id="Layer_1" data-name="Layer 1" xmlns="http://www.w3.org/2000/svg" viewBox="0 0 512 512">
  <defs>
    <style>
      .cls-1 {
        fill: #010101;
      }

      .cls-1, .cls-2 {
        stroke-width: 0px;
      }

      .cls-2, .cls-3 {
        fill: #fff;
      }

      .cls-4 {
        fill: #d7e1e2;
      }

      .cls-4, .cls-3, .cls-5, .cls-6 {
        stroke: #010101;
        stroke-linecap: round;
        stroke-linejoin: round;
      }

      .cls-4, .cls-3, .cls-6 {
        stroke-width: 12px;
      }

      .cls-5 {
        fill: none;
        stroke-width: 10.39px;
      }

      .cls-6 {
        fill: #f47621;
      }
    </style>
  </defs>
  <path class="cls-6" d="m167.36,177.24v8.96c0,2.3,1.73,4.24,4.02,4.5l19.39,2.19c1.6,6.52,4.17,12.67,7.56,18.26l-12.17,15.26c-1.44,1.8-1.29,4.39.34,6.02l12.67,12.67c1.63,1.63,4.22,1.77,6.02.34l15.26-12.17c5.59,3.39,11.73,5.96,18.26,7.56l2.19,19.39c.26,2.29,2.19,4.02,4.5,4.02h17.91c2.3,0,4.24-1.73,4.5-4.02l2.19-19.39c6.52-1.6,12.67-4.17,18.26-7.56l15.26,12.17c1.8,1.44,4.39,1.29,6.02-.34l12.67-12.67c1.63-1.63,1.77-4.22.34-6.02l-12.17-15.26c3.39-5.59,5.96-11.73,7.56-18.26l19.39-2.19c2.29-.26,4.02-2.19,4.02-4.5v-17.91c0-2.3-1.73-4.24-4.02-4.5l-19.39-2.19c-1.6-6.52-4.17-12.67-7.56-18.26l12.17-15.26c1.44-1.8,1.29-4.39-.34-6.02l-12.67-12.67c-1.63-1.63-4.22-1.77-6.02-.34l-15.26,12.17c-5.59-3.39-11.73-5.96-18.26-7.56l-2.19-19.39c-.26-2.29-2.19-4.02-4.5-4.02h-17.91c-2.3,0-4.24,1.73-4.5,4.02l-2.19,19.39c-6.52,1.6-12.67,4.17-18.26,7.56l-15.26-12.17c-1.8-1.44-4.39-1.29-6.02.34l-12.67,12.67c-1.63,1.63-1.77,4.22-.34,6.02l12.17,15.26c-3.39,5.59-5.96,11.73-7.56,18.26l-19.39,2.19c-2.29.26-4.02,2.19-4.02,4.5v8.96"/>
  <circle class="cls-2" cx="254.35" cy="175.72" r="33.38"/>
  <circle class="cls-4" cx="254.35" cy="175.72" r="33.38"/>
  <circle class="cls-2" cx="250.9" cy="173.02" r="24.29"/>
  <path class="cls-3" d="m259.35,327.68v8.96c0,2.3,1.73,4.24,4.02,4.5l19.39,2.19c1.6,6.52,4.17,12.67,7.56,18.26l-12.17,15.26c-1.44,1.8-1.29,4.39.34,6.02l12.67,12.67c1.63,1.63,4.22,1.77,6.02.34l15.26-12.17c5.59,3.39,11.73,5.96,18.26,7.56l2.19,19.39c.26,2.29,2.19,4.02,4.5,4.02h17.91c2.3,0,4.24-1.73,4.5-4.02l2.19-19.39c6.52-1.6,12.67-4.17,18.26-7.56l15.26,12.17c1.8,1.44,4.39,1.29,6.02-.34l12.67-12.67c1.63-1.63,1.77-4.22.34-6.02l-12.17-15.26c3.39-5.59,5.96-11.73,7.56-18.26l19.39-2.19c2.29-.26,4.02-2.19,4.02-4.5v-17.91c0-2.3-1.73-4.24-4.02-4.5l-19.39-2.19c-1.6-6.52-4.17-12.67-7.56-18.26l12.17-15.26c1.44-1.8,1.29-4.39-.34-6.02l-12.67-12.67c-1.63-1.63-4.22-1.77-6.02-.34l-15.26,12.17c-5.59-3.39-11.73-5.96-18.26-7.56l-2.19-19.39c-.26-2.29-2.19-4.02-4.5-4.02h-17.91c-2.3,0-4.24,1.73-4.5,4.02l-2.19,19.39c-6.52,1.6-12.67,4.17-18.26,7.56l-15.26-12.17c-1.8-1.44-4.39-1.29-6.02.34l-12.67,12.67c-1.63,1.63-1.77,4.22-.34,6.02l12.17,15.26c-3.39,5.59-5.96,11.73-7.56,18.26l-19.39,2.19c-2.29.26-4.02,2.19-4.02,4.5v8.96"/>
  <circle class="cls-2" cx="346.33" cy="326.15" r="33.38"/>
  <circle class="cls-4" cx="346.33" cy="326.15" r="33.38"/>
  <circle class="cls-2" cx="343.48" cy="324.4" r="24.03"/>
  <path class="cls-6" d="m85.63,367.32v8.96c0,2.3,1.73,4.24,4.02,4.5l19.39,2.19c1.6,6.52,4.17,12.67,7.56,18.26l-12.17,15.26c-1.44,1.8-1.29,4.39.34,6.02l12.67,12.67c1.63,1.63,4.22,1.77,6.02.34l15.26-12.17c5.59,3.39,11.73,5.96,18.26,7.56l2.19,19.39c.26,2.29,2.19,4.02,4.5,4.02h17.91c2.3,0,4.24-1.73,4.5-4.02l2.19-19.39c6.52-1.6,12.67-4.17,18.26-7.56l15.26,12.17c1.8,1.44,4.39,1.29,6.02-.34l12.67-12.67c1.63-1.63,1.77-4.22.34-6.02l-12.17-15.26c3.39-5.59,5.96-11.73,7.56-18.26l19.39-2.19c2.29-.26,4.02-2.19,4.02-4.5v-17.91c0-2.3-1.73-4.24-4.02-4.5l-19.39-2.19c-1.6-6.52-4.17-12.67-7.56-18.26l12.17-15.26c1.44-1.8,1.29-4.39-.34-6.02l-12.67-12.67c-1.63-1.63-4.22-1.77-6.02-.34l-15.26,12.17c-5.59-3.39-11.73-5.96-18.26-7.56l-2.19-19.39c-.26-2.29-2.19-4.02-4.5-4.02h-17.91c-2.3,0-4.24,1.73-4.5,4.02l-2.19,19.39c-6.52,1.6-12.67,4.17-18.26,7.56l-15.26-12.17c-1.8-1.44-4.39-1.29-6.02.34l-12.67,12.67c-1.63,1.63-1.77,4.22-.34,6.02l12.17,15.26c-3.39,5.59-5.96,11.73-7.56,18.26l-19.39,2.19c-2.29.26-4.02,2.19-4.02,4.5v8.96"/>
  <circle class="cls-2" cx="172.62" cy="365.79" r="33.38"/>
  <circle class="cls-4" cx="172.62" cy="365.79" r="33.38"/>
  <circle class="cls-2" cx="169.91" cy="364.07" r="25.06"/>
  <g>
    <path class="cls-5" d="m377.73,152.04c-7.75-52.75-52.75-93.54-107.8-94.34"/>
    <polygon class="cls-1" points="389.59 147.45 378.89 169.9 364.8 149.42 389.59 147.45"/>
  </g>
  <g>
    <path class="cls-5" d="m464.73,352.56c-7.75,52.75-52.75,93.54-107.8,94.34"/>
    <polygon class="cls-1" points="451.8 355.18 465.89 334.7 476.59 357.15 451.8 355.18"/>
  </g>
  <g>
    <path class="cls-5" d="m63.41,305.77c-28.71,44.93-21.43,105.23,19.63,141.9"/>
    <polygon class="cls-1" points="51.45 301.46 74.23 291.51 71.46 316.23 51.45 301.46"/>
  </g>
</svg>