<?xml version="1.0" encoding="UTF-8"?>
<svg id="Layer_1" data-name="Layer 1" xmlns="http://www.w3.org/2000/svg" viewBox="0 0 512 512">
  <defs>
    <style>
      .cls-1 {
        stroke-width: 13px;
      }

      .cls-1, .cls-2, .cls-3, .cls-4, .cls-5, .cls-6 {
        stroke-linecap: round;
      }

      .cls-1, .cls-5 {
        fill: none;
        stroke: #231f20;
        stroke-miterlimit: 10;
      }

      .cls-7, .cls-8, .cls-9 {
        stroke-width: 0px;
      }

      .cls-7, .cls-6 {
        fill: #f47621;
      }

      .cls-8, .cls-3 {
        fill: #fff;
      }

      .cls-9 {
        fill: #231f20;
      }

      .cls-2 {
        fill: #d7e1e2;
      }

      .cls-2, .cls-3, .cls-4, .cls-5, .cls-6 {
        stroke-width: 12px;
      }

      .cls-2, .cls-3, .cls-4, .cls-6 {
        stroke: #010101;
        stroke-linejoin: round;
      }

      .cls-4 {
        fill: #ce6728;
      }
    </style>
  </defs>
  <circle class="cls-2" cx="296.87" cy="235" r="113.96"/>
  <circle class="cls-8" cx="292.87" cy="228.39" r="102.37"/>
  <g>
    <path class="cls-6" d="m282.04,278.58h0c-5.6,0-10.5,2.97-13.23,7.42h-2.27v-7.19c0-8.56-6.94-15.5-15.5-15.5h0c-8.56,0-15.5,6.94-15.5,15.5v-9.57c0-8.56-6.94-15.5-15.5-15.5h0c-8.56,0-15.5,6.94-15.5,15.5v-63.9c0-8.56-6.94-15.5-15.5-15.5h0c-8.56,0-15.5,6.94-15.5,15.5v151.28c0,21.5,17.43,38.92,38.92,38.92h47.75c20.61,0,37.31-16.71,37.31-37.31v-64.15c0-8.56-6.94-15.5-15.5-15.5Z"/>
    <line class="cls-5" x1="204.55" y1="269.24" x2="204.55" y2="313.42"/>
    <line class="cls-5" x1="235.55" y1="278.81" x2="235.55" y2="313.2"/>
    <line class="cls-1" x1="267.09" y1="285.32" x2="266.64" y2="313.2"/>
    <path class="cls-6" d="m173.88,361.4l-31.46-89.66s31.79-12.01,30.93,20.52l.54,69.13Z"/>
    <rect class="cls-2" x="173.72" y="397.7" width="123.66" height="40.97" rx="5.78" ry="5.78"/>
    <rect class="cls-8" x="178.88" y="402.99" width="94.5" height="29.89"/>
    <circle class="cls-9" cx="273.43" cy="419.47" r="6.56"/>
  </g>
  <circle class="cls-3" cx="247.25" cy="132.26" r="17.81"/>
  <circle class="cls-3" cx="282.88" cy="223.26" r="17.81"/>
  <circle class="cls-3" cx="404.02" cy="199.18" r="17.81"/>
  <circle class="cls-6" cx="107.98" cy="199.18" r="17.81"/>
  <circle class="cls-6" cx="377.43" cy="313.42" r="17.81"/>
  <circle class="cls-3" cx="168.07" cy="91.14" r="17.81"/>
  <polygon class="cls-4" points="404.02 90.98 291.44 90.98 332.87 162.73 332.87 209.17 362.59 209.17 362.59 162.73 404.02 90.98"/>
  <polygon class="cls-7" points="301.82 96.86 386.65 97.01 350.07 159.7 350.07 203.15 338.2 203.15 338.2 160.94 301.82 96.86"/>
</svg>