<?xml version="1.0" encoding="UTF-8"?>
<svg id="Layer_1" data-name="Layer 1" xmlns="http://www.w3.org/2000/svg" viewBox="0 0 512 512">
  <defs>
    <style>
      .cls-1, .cls-2 {
        stroke-width: 0px;
      }

      .cls-1, .cls-3 {
        fill: #f47621;
      }

      .cls-2 {
        fill: #fff;
      }

      .cls-4 {
        fill: #d7e1e2;
      }

      .cls-4, .cls-5, .cls-6, .cls-3 {
        stroke: #010101;
        stroke-linecap: round;
        stroke-linejoin: round;
        stroke-width: 12px;
      }

      .cls-5 {
        fill: none;
      }

      .cls-6 {
        fill: #ce6728;
      }
    </style>
  </defs>
  <g>
    <path class="cls-6" d="m316.2,126.37v219.34c0,15.37-12.46,27.84-27.84,27.84H117.64c-15.37,0-27.84-12.46-27.84-27.84V116.72c0-16.4,13.29-29.69,29.69-29.69h154.39"/>
    <path class="cls-1" d="m119.13,91.61h166.63v275.9H117.69c-12.03,0-21.81-9.77-21.81-21.81V114.86c0-12.83,10.42-23.25,23.25-23.25Z"/>
    <polyline class="cls-3" points="273.89 87.03 273.89 126.37 316.2 126.37"/>
    <line class="cls-5" x1="273.89" y1="87.03" x2="316.2" y2="126.37"/>
    <line class="cls-5" x1="129.89" y1="184.41" x2="129.89" y2="236.99"/>
    <line class="cls-5" x1="148.17" y1="202.75" x2="148.17" y2="236.99"/>
    <line class="cls-5" x1="166.44" y1="190.67" x2="166.44" y2="236.99"/>
    <line class="cls-5" x1="184.72" y1="195.81" x2="184.72" y2="236.99"/>
    <line class="cls-5" x1="203" y1="176.92" x2="203" y2="236.99"/>
    <line class="cls-5" x1="126.89" y1="126.37" x2="166.44" y2="126.37"/>
    <line class="cls-5" x1="126.89" y1="282.61" x2="249.36" y2="282.61"/>
    <line class="cls-5" x1="126.89" y1="305.11" x2="220.41" y2="305.11"/>
    <g>
      <circle class="cls-4" cx="315.57" cy="299.46" r="106.63"/>
      <circle class="cls-2" cx="310.13" cy="296.59" r="95.51"/>
      <line class="cls-5" x1="376.63" y1="386.88" x2="414.71" y2="424.97"/>
    </g>
  </g>
  <polyline class="cls-5" points="256 330.76 285.76 271.11 329.49 291.33 395.67 167.12"/>
  <polyline class="cls-5" points="374.03 167.12 402.64 156.32 406.77 185.41"/>
  <line class="cls-5" x1="344.31" y1="305.11" x2="375.03" y2="248.94"/>
</svg>